# 3ds Max Wavefront OBJ Exporter v0.97b - (c)2007 guruware
# File Created: 05.05.2019 11:52:18

mtllib Carne.mtl

#
# object Box003
#

v  -6.5519 0.6293 -3.4560
v  -7.1240 -0.0571 -7.6632
v  7.1294 -0.0571 -7.6632
v  6.5573 0.6293 -3.4560
v  -6.5519 21.4659 -3.4560
v  6.5573 21.4659 -3.4560
v  7.1294 22.1523 -7.6632
v  -7.1240 22.1523 -7.6632
v  12.3476 6.4272 -3.4468
v  13.1552 5.9848 -7.6599
v  13.1552 16.1104 -7.6599
v  12.3476 15.6680 -3.4468
v  -12.3557 6.4222 -27.1325
v  -13.3794 5.8971 -22.2861
v  -13.3794 16.1981 -22.2861
v  -12.3557 15.6729 -27.1325
v  -7.2426 -0.2429 -22.2831
v  -6.5560 0.6226 -27.1324
v  6.5614 0.6226 -27.1324
v  7.2479 -0.2429 -22.2831
v  7.2479 22.3381 -22.2831
v  6.5614 21.4726 -27.1324
v  -6.5560 21.4726 -27.1324
v  -7.2426 22.3381 -22.2831
v  13.3847 5.8971 -22.2861
v  12.3610 6.4222 -27.1325
v  12.3610 15.6729 -27.1325
v  13.3847 16.1981 -22.2861
v  -13.1499 5.9848 -7.6599
v  -12.3422 6.4272 -3.4468
v  -12.3422 15.6680 -3.4468
v  -13.1499 16.1104 -7.6599
v  3.3682 3.3431 -1.9826
v  -3.3628 3.3431 -1.9826
v  -9.1308 9.1109 -1.9830
v  -9.1308 12.9843 -1.9830
v  -3.3628 18.7521 -1.9826
v  3.3682 18.7521 -1.9826
v  9.1362 12.9843 -1.9830
v  9.1362 9.1109 -1.9830
v  -5.7985 0.9256 -10.6867
v  5.8038 0.9256 -10.6867
v  11.9958 7.1256 -10.6898
v  11.9958 14.9696 -10.6898
v  5.8038 21.1696 -10.6867
v  -5.7985 21.1696 -10.6867
v  -11.9904 14.9696 -10.6898
v  -11.9904 7.1256 -10.6898
v  -4.0415 3.2180 -29.2961
v  4.0468 3.2180 -29.2961
v  7.1145 8.3138 -29.3491
v  7.1145 13.7814 -29.3491
v  4.0468 18.8771 -29.2961
v  -4.0415 18.8771 -29.2961
v  -7.1092 13.7814 -29.3491
v  -7.1092 8.3138 -29.3491
v  5.3249 1.7596 -13.7798
v  -5.3196 1.7596 -13.7798
v  -11.0009 7.4501 -13.7870
v  -11.0009 14.6451 -13.7870
v  -5.3196 20.3356 -13.7798
v  5.3249 20.3356 -13.7798
v  11.0063 14.6451 -13.7870
v  11.0063 7.4501 -13.7870
v  1.4116 7.8461 -1.0237
v  -1.4062 7.8461 -1.0237
v  3.7723 10.1846 -1.0240
v  3.7723 11.9105 -1.0240
v  1.4116 14.2491 -1.0237
v  -1.4062 14.2491 -1.0237
v  -3.7670 11.9105 -1.0240
v  -3.7670 10.1846 -1.0240
v  -0.8457 9.1771 -1.9828
v  0.8510 9.1771 -1.9828
v  1.0933 9.1842 8.9742
v  -1.0794 9.1842 8.9742
v  2.1436 10.4033 -1.9829
v  2.7507 10.4052 8.9741
v  2.1436 11.6919 -1.9829
v  2.7507 11.6901 8.9741
v  0.8510 12.9181 -1.9828
v  1.0933 12.9111 8.9742
v  -0.8457 12.9181 -1.9828
v  -1.0794 12.9111 8.9742
v  -2.1382 11.6919 -1.9829
v  -2.7368 11.6901 8.9741
v  -2.1382 10.4033 -1.9829
v  -2.7368 10.4052 8.9741
v  1.0903 9.0256 12.0820
v  1.0133 9.3007 14.6347
v  -0.9648 9.3009 14.5084
v  -1.0314 9.0256 11.8758
v  -1.0331 13.0697 11.8720
v  -0.9783 12.7945 14.4994
v  0.9630 12.7942 14.7061
v  1.0802 13.0697 12.0969
v  -1.6866 11.8291 16.2104
v  -1.6766 10.2665 16.2169
v  1.6196 10.2730 16.4212
v  1.5818 11.8217 16.4742
v  -4.9645 11.8384 17.0353
v  -5.5634 11.9819 16.0122
v  -5.5575 10.1135 16.0131
v  -4.9629 10.2569 17.0332
v  4.8447 9.9210 17.6537
v  5.5182 9.7162 16.5941
v  5.4731 12.3784 16.6654
v  4.8289 12.1744 17.6797
v  -3.0575 11.8478 12.2343
v  -3.0529 10.2473 12.2453
v  3.2709 10.2056 13.2561
v  3.2394 11.8890 13.3012
v  2.7717 9.9547 15.3126
v  -2.6733 9.9714 14.7299
v  -2.6894 12.1234 14.6962
v  2.6622 12.1378 15.4706
v  -3.5857 12.1811 15.1298
v  -4.4413 12.4086 15.5423
v  -3.8014 12.1081 17.1614
v  -3.0848 11.8631 16.5648
v  -3.8842 10.2243 12.9529
v  -4.5080 10.0583 12.9776
v  -4.5128 12.0365 12.9763
v  -3.8901 11.8703 12.9500
v  -3.0793 10.2326 16.5678
v  -3.7957 9.9881 17.1626
v  -4.4286 9.6864 15.5577
v  -3.5858 9.9173 15.1601
v  3.5066 9.8662 15.8007
v  4.4313 9.6567 16.2884
v  3.5899 9.9789 17.6781
v  2.8116 10.2355 16.9445
v  4.1182 11.9150 14.4001
v  4.7593 12.1120 14.2602
v  4.7820 9.9844 14.2181
v  4.1430 10.1803 14.3694
v  2.7854 11.8588 16.9853
v  3.5652 12.1152 17.7237
v  4.3572 12.4364 16.4226
v  3.4588 12.2121 15.9624
v  -5.8519 11.8458 14.6620
v  -5.8503 10.2495 14.6599
v  5.7487 9.9104 15.2171
v  5.7329 12.1850 15.2432
# 144 vertices

vn -0.3119 -0.7418 0.5937
vn -0.4100 -0.9048 -0.1155
vn 0.4100 -0.9048 -0.1155
vn 0.3119 -0.7418 0.5937
vn -0.3119 0.7418 0.5937
vn 0.3119 0.7418 0.5937
vn 0.4100 0.9048 -0.1155
vn -0.4100 0.9048 -0.1155
vn 0.7333 -0.3093 0.6055
vn 0.9099 -0.3979 -0.1172
vn 0.9099 0.3979 -0.1172
vn 0.7333 0.3093 0.6055
vn -0.7391 -0.3013 -0.6024
vn -0.9199 -0.3900 0.0402
vn -0.9199 0.3900 0.0402
vn -0.7391 0.3013 -0.6024
vn -0.4003 -0.9156 0.0384
vn -0.3290 -0.7790 -0.5338
vn 0.3290 -0.7790 -0.5338
vn 0.4003 -0.9156 0.0384
vn 0.4003 0.9156 0.0384
vn 0.3290 0.7790 -0.5338
vn -0.3290 0.7790 -0.5338
vn -0.4003 0.9156 0.0384
vn 0.9199 -0.3900 0.0402
vn 0.7391 -0.3013 -0.6024
vn 0.7391 0.3013 -0.6024
vn 0.9199 0.3900 0.0402
vn -0.9099 -0.3979 -0.1172
vn -0.7333 -0.3093 0.6055
vn -0.7333 0.3093 0.6055
vn -0.9099 0.3979 -0.1172
vn 0.0858 -0.3097 0.9469
vn -0.0858 -0.3097 0.9469
vn -0.2749 -0.0863 0.9576
vn -0.2749 0.0863 0.9576
vn -0.0858 0.3097 0.9470
vn 0.0858 0.3097 0.9470
vn 0.2749 0.0863 0.9576
vn 0.2749 -0.0863 0.9576
vn -0.3280 -0.8744 -0.3574
vn 0.3280 -0.8744 -0.3574
vn 0.8632 -0.3273 -0.3843
vn 0.8632 0.3273 -0.3843
vn 0.3280 0.8744 -0.3574
vn -0.3280 0.8744 -0.3574
vn -0.8632 0.3273 -0.3843
vn -0.8632 -0.3273 -0.3843
vn -0.1397 -0.3375 -0.9309
vn 0.1397 -0.3375 -0.9309
vn 0.2116 -0.0594 -0.9755
vn 0.2116 0.0594 -0.9755
vn 0.1397 0.3375 -0.9309
vn -0.1397 0.3375 -0.9309
vn -0.2116 0.0594 -0.9755
vn -0.2116 -0.0594 -0.9755
vn 0.3640 -0.9314 -0.0038
vn -0.3640 -0.9314 -0.0038
vn -0.9258 -0.3779 -0.0037
vn -0.9258 0.3779 -0.0037
vn -0.3640 0.9314 -0.0038
vn 0.3640 0.9314 -0.0038
vn 0.9258 0.3779 -0.0037
vn 0.9258 -0.3779 -0.0037
vn -0.0399 0.0939 0.9948
vn 0.0399 0.0939 0.9948
vn -0.0906 0.0188 0.9957
vn -0.0906 -0.0188 0.9957
vn -0.0399 -0.0939 0.9948
vn 0.0399 -0.0939 0.9948
vn 0.0906 -0.0188 0.9957
vn 0.0906 0.0188 0.9957
vn -0.1027 -0.2600 0.9601
vn 0.1026 -0.2602 0.9601
vn 0.3156 -0.9485 -0.0273
vn -0.3171 -0.9480 -0.0264
vn 0.2952 -0.0742 0.9525
vn 0.8895 -0.4479 -0.0900
vn 0.2952 0.0742 0.9525
vn 0.8901 0.4477 -0.0860
vn 0.1026 0.2602 0.9601
vn 0.3159 0.9484 -0.0267
vn -0.1027 0.2600 0.9601
vn -0.3171 0.9480 -0.0266
vn -0.2949 0.0740 0.9526
vn -0.8911 0.4467 -0.0796
vn -0.2949 -0.0740 0.9526
vn -0.8912 -0.4467 -0.0788
vn 0.2407 -0.9704 0.0223
vn 0.1095 -0.9550 0.2755
vn -0.1582 -0.9504 0.2678
vn -0.2646 -0.9641 0.0230
vn -0.2642 0.9642 0.0223
vn -0.1663 0.9505 0.2626
vn 0.1009 0.9545 0.2806
vn 0.2429 0.9698 0.0231
vn 0.0006 0.6020 0.7985
vn 0.0072 -0.5951 0.8037
vn -0.1321 -0.6076 0.7832
vn -0.1415 0.5668 0.8116
vn -0.4980 0.4558 0.7377
vn -0.7590 0.5767 0.3022
vn -0.7574 -0.5791 0.3016
vn -0.4988 -0.4579 0.7359
vn 0.3711 -0.5635 0.7381
vn 0.6862 -0.6785 0.2622
vn 0.6775 0.6845 0.2691
vn 0.3736 0.5559 0.7425
vn -0.7355 0.6140 -0.2866
vn -0.7309 -0.6197 -0.2861
vn 0.7698 -0.5900 -0.2437
vn 0.7504 0.6174 -0.2361
vn 0.0561 -0.9962 0.0661
vn -0.1217 -0.9907 0.0605
vn -0.1211 0.9910 0.0564
vn 0.0595 0.9942 0.0896
vn 0.1654 0.9862 -0.0083
vn -0.0753 0.9970 0.0200
vn 0.2385 0.6297 0.7393
vn 0.4471 0.6319 0.6330
vn -0.1634 -0.7098 -0.6852
vn -0.2876 -0.6318 -0.7198
vn -0.2898 0.6307 -0.7199
vn -0.1673 0.7062 -0.6879
vn 0.4451 -0.6299 0.6365
vn 0.2385 -0.6279 0.7408
vn -0.0706 -0.9973 0.0215
vn 0.1684 -0.9857 -0.0068
vn -0.1557 -0.9872 -0.0343
vn -0.0651 -0.9978 0.0090
vn -0.3543 -0.6032 0.7146
vn -0.5071 -0.6182 0.6006
vn 0.0687 0.7282 -0.6819
vn 0.1487 0.6044 -0.7827
vn 0.1558 -0.5844 -0.7964
vn 0.0717 -0.7019 -0.7087
vn -0.5101 0.5920 0.6239
vn -0.3540 0.5802 0.7335
vn -0.0775 0.9968 0.0197
vn -0.1644 0.9862 -0.0210
vn -0.8245 0.5312 -0.1950
vn -0.8241 -0.5318 -0.1953
vn 0.7693 -0.5731 -0.2822
vn 0.7652 0.5823 -0.2745
# 144 vertex normals

vt 0.7654 0.0000 0.0000
vt 0.7707 0.5000 0.0000
vt 0.2293 0.5000 0.0000
vt 0.2346 0.0000 0.0000
vt 0.0000 0.2782 0.0000
vt 0.5000 0.2718 0.0000
vt 0.5000 0.7282 0.0000
vt 0.0000 0.7218 0.0000
vt 0.5000 0.2719 0.0000
vt 0.5000 0.7281 0.0000
vt 0.7654 1.0000 0.0000
vt 0.2346 1.0000 0.0000
vt 1.0000 0.2782 0.0000
vt 1.0000 0.7218 0.0000
vt 0.3158 0.0000 0.0000
vt 0.6842 0.0000 0.0000
vt 1.0000 0.3743 0.0000
vt 1.0000 0.6257 0.0000
vt 0.0000 0.6257 0.0000
vt 0.0000 0.3743 0.0000
vt 0.7417 0.5000 0.0000
vt 0.2583 0.5000 0.0000
vt 0.5000 0.3062 0.0000
vt 0.5000 0.6938 0.0000
vt 0.6842 1.0000 0.0000
vt 0.3158 1.0000 0.0000
vt 1.0180 -0.1915 0.0000
vt 0.5180 -0.1969 0.0000
vt 1.0190 -0.2038 0.0000
vt 0.5190 -0.2091 0.0000
vt -0.0180 1.1915 0.0000
vt 0.4820 1.1969 0.0000
vt -0.0190 1.2038 0.0000
vt 0.4810 1.2091 0.0000
vt 0.4810 -0.2091 0.0000
vt -0.0190 -0.2038 0.0000
vt 0.4820 -0.1969 0.0000
vt -0.0180 -0.1915 0.0000
vt 0.5190 1.2091 0.0000
vt 1.0190 1.2038 0.0000
vt 0.5180 1.1969 0.0000
vt 1.0180 1.1915 0.0000
vt 0.3743 0.0000 0.0000
vt 0.2782 0.0000 0.0000
vt 1.0000 0.3158 0.0000
vt 1.0000 0.2346 0.0000
vt 0.0000 0.6842 0.0000
vt 0.0000 0.7654 0.0000
vt 0.6938 0.5000 0.0000
vt 0.7282 0.5000 0.0000
vt 0.5000 0.2583 0.0000
vt 0.5000 0.2293 0.0000
vt 0.5000 0.7417 0.0000
vt 0.5000 0.7707 0.0000
vt 0.6257 1.0000 0.0000
vt 0.7218 1.0000 0.0000
vt 0.3062 0.5000 0.0000
vt 0.2719 0.5000 0.0000
vt 0.6607 0.7341 0.0000
vt 0.8393 0.2713 0.0000
vt 0.3393 0.2659 0.0000
vt 0.1607 0.7287 0.0000
vt 0.2161 1.1277 0.0000
vt 0.2999 1.1048 0.0000
vt 0.4059 1.1067 0.0000
vt 0.4266 1.1312 0.0000
vt 0.3207 0.9273 0.0000
vt 0.4537 0.8190 0.0000
vt 0.2595 0.8248 0.0000
vt 0.3207 0.9309 0.0000
vt 0.4502 1.0638 0.0000
vt 0.3712 1.0656 0.0000
vt 0.6603 0.6508 0.0000
vt 0.1603 0.6526 0.0000
vt 0.7854 1.2063 0.0000
vt 0.2197 -0.1941 0.0000
vt 0.2295 -0.2064 0.0000
vt 0.8287 1.1935 0.0000
vt 0.2449 1.1198 0.0000
vt 0.2724 1.1123 0.0000
vt 0.1380 1.1490 0.0000
vt 0.0600 1.1702 0.0000
vt 0.4040 1.1045 0.0000
vt 0.4021 1.1023 0.0000
vt 0.3799 0.8791 0.0000
vt 0.4168 0.8490 0.0000
vt 0.2074 1.0195 0.0000
vt 0.0942 1.1116 0.0000
vt 0.2597 0.8250 0.0000
vt 0.2598 0.8253 0.0000
vt 0.2175 1.1273 0.0000
vt 0.4002 1.1000 0.0000
vt 0.3430 0.9091 0.0000
vt 0.2600 0.8255 0.0000
# 94 texture coords

o Box003
g Box003
usemtl wire_154185229
s 1
f 1/1/1 2/2/2 3/3/3 4/4/4 
f 5/4/5 6/1/6 7/2/7 8/3/8 
f 9/5/9 10/6/10 11/7/11 12/8/12 
f 13/5/13 14/9/14 15/10/15 16/8/16 
f 17/2/17 18/11/18 19/12/19 20/3/20 
f 21/2/21 22/11/22 23/12/23 24/3/24 
f 25/9/25 26/13/26 27/14/27 28/10/28 
f 29/6/29 30/13/30 31/14/31 32/7/32 
f 33/15/33 34/16/34 1/1/1 4/4/4 
f 35/17/35 36/18/36 31/14/31 30/13/30 
f 37/15/37 38/16/38 6/1/6 5/4/5 
f 39/19/39 40/20/40 9/5/9 12/8/12 
f 41/21/41 42/22/42 3/3/3 2/2/2 
f 43/23/43 44/24/44 11/7/11 10/6/10 
f 45/21/45 46/22/46 8/3/8 7/2/7 
f 47/24/47 48/23/48 29/6/29 32/7/32 
f 49/25/49 50/26/50 19/12/19 18/11/18 
f 51/17/51 52/18/52 27/14/27 26/13/26 
f 53/25/53 54/26/54 23/12/23 22/11/22 
f 55/19/55 56/20/56 13/5/13 16/8/16 
f 57/22/57 58/21/58 17/2/17 20/3/20 
f 59/23/59 60/24/60 15/10/15 14/9/14 
f 61/22/61 62/21/62 21/2/21 24/3/24 
f 63/24/63 64/23/64 25/9/25 28/10/28 
f 57/22/57 42/22/42 41/21/41 58/21/58 
f 61/22/61 46/22/46 45/21/45 62/21/62 
f 63/24/63 44/24/44 43/23/43 64/23/64 
f 59/23/59 48/23/48 47/24/47 60/24/60 
f 1/27/1 30/13/30 29/6/29 2/28/2 
f 19/29/19 26/13/26 25/9/25 20/30/20 
f 6/31/6 12/8/12 11/7/11 7/32/7 
f 23/33/23 16/8/16 15/10/15 24/34/24 
f 17/35/17 14/9/14 13/5/13 18/36/18 
f 3/37/3 10/6/10 9/5/9 4/38/4 
f 21/39/21 28/10/28 27/14/27 22/40/22 
f 8/41/8 32/7/32 31/14/31 5/42/5 
f 40/43/40 33/15/33 4/4/4 9/44/9 
f 34/45/34 35/17/35 30/13/30 1/46/1 
f 36/43/36 37/15/37 5/4/5 31/44/31 
f 38/47/38 39/19/39 12/8/12 6/48/6 
f 48/49/48 41/21/41 2/2/2 29/50/29 
f 42/51/42 43/23/43 10/6/10 3/52/3 
f 44/49/44 45/21/45 7/2/7 11/50/11 
f 46/53/46 47/24/47 32/7/32 8/54/8 
f 56/55/56 49/25/49 18/11/18 13/56/13 
f 50/45/50 51/17/51 26/13/26 19/46/19 
f 52/55/52 53/25/53 22/11/22 27/56/27 
f 54/47/54 55/19/55 16/8/16 23/48/23 
f 64/57/64 57/22/57 20/3/20 25/58/25 
f 58/51/58 59/23/59 14/9/14 17/52/17 
f 60/57/60 61/22/61 24/3/24 15/58/15 
f 62/53/62 63/24/63 28/10/28 21/54/21 
f 59/49/59 58/21/58 41/21/41 48/49/48 
f 43/57/43 42/22/42 57/22/57 64/57/64 
f 45/53/45 44/24/44 63/24/63 62/53/62 
f 61/53/61 60/24/60 47/24/47 46/53/46 
f 34/15/34 33/16/33 65/16/65 66/15/66 
f 33/16/33 40/17/40 67/17/67 65/16/65 
f 40/17/40 39/18/39 68/18/68 67/17/67 
f 39/18/39 38/25/38 69/25/69 68/18/68 
f 38/25/38 37/26/37 70/26/70 69/25/69 
f 37/26/37 36/19/36 71/19/71 70/26/70 
f 36/19/36 35/20/35 72/20/72 71/19/71 
f 35/20/35 34/15/34 66/15/66 72/20/72 
f 73/15/73 74/16/74 75/16/75 76/15/76 
f 74/16/74 77/17/77 78/17/78 75/16/75 
f 77/17/77 79/18/79 80/18/80 78/17/78 
f 79/18/79 81/25/81 82/25/82 80/18/80 
f 81/25/81 83/26/83 84/26/84 82/25/82 
f 83/26/83 85/19/85 86/19/86 84/26/84 
f 85/19/85 87/20/87 88/20/88 86/19/86 
f 87/20/87 73/15/73 76/15/76 88/20/88 
f 89/16/89 90/16/90 91/15/91 92/15/92 
f 93/26/93 94/26/94 95/25/95 96/25/96 
f 97/59/97 98/60/98 99/61/99 100/62/100 
f 101/63/101 102/64/102 103/65/103 104/66/104 
f 105/67/105 106/68/106 107/69/107 108/70/108 
f 109/71/109 86/25/86 88/26/88 110/72/110 
f 111/73/111 78/17/78 80/20/80 112/74/112 
f 90/16/90 99/16/99 98/15/98 91/15/91 
f 92/15/92 76/15/76 75/16/75 89/16/89 
f 94/26/94 97/26/97 100/25/100 95/25/95 
f 96/25/96 82/25/82 84/26/84 93/26/93 
f 82/26/82 96/44/96 112/41/112 80/20/80 
f 86/25/86 109/36/109 93/47/93 84/25/84 
f 76/20/76 92/44/92 110/37/110 88/26/88 
f 78/17/78 111/40/111 89/45/89 75/17/75 
f 90/46/90 113/75/113 99/39/99 
f 91/43/91 98/38/98 114/76/114 
f 94/48/94 115/77/115 97/35/97 
f 95/43/95 100/42/100 116/78/116 
f 117/79/117 118/80/118 119/81/119 120/82/120 
f 121/72/121 122/72/122 123/71/123 124/71/124 
f 125/66/125 126/66/126 127/83/127 128/84/128 
f 120/82/120 119/81/119 126/66/126 125/66/125 
f 129/85/129 130/86/130 131/87/131 132/88/132 
f 133/74/133 134/74/134 135/73/135 136/73/136 
f 137/70/137 138/70/138 139/89/139 140/90/140 
f 132/88/132 131/87/131 138/70/138 137/70/137 
f 94/48/94 93/47/93 109/36/109 115/77/115 
f 124/71/124 123/71/123 118/80/118 117/79/117 
f 102/64/102 141/71/141 142/72/142 103/65/103 
f 122/72/122 121/72/121 128/84/128 127/83/127 
f 114/76/114 110/37/110 92/44/92 91/43/91 
f 90/46/90 89/45/89 111/40/111 113/75/113 
f 136/73/136 135/73/135 130/86/130 129/85/129 
f 106/68/106 143/73/143 144/74/144 107/69/107 
f 134/74/134 133/74/133 140/90/140 139/89/139 
f 116/78/116 112/41/112 96/44/96 95/43/95 
f 118/80/118 102/64/102 101/63/101 119/81/119 
f 120/82/120 97/31/97 115/91/115 117/79/117 
f 122/72/122 142/72/142 141/71/141 123/71/123 
f 124/71/124 109/71/109 110/72/110 121/72/121 
f 126/66/126 104/66/104 103/65/103 127/83/127 
f 128/84/128 114/92/114 98/66/98 125/66/125 
f 119/81/119 101/63/101 104/66/104 126/66/126 
f 125/66/125 98/66/98 97/31/97 120/82/120 
f 123/71/123 141/71/141 102/64/102 118/80/118 
f 117/79/117 115/91/115 109/71/109 124/71/124 
f 121/72/121 110/72/110 114/92/114 128/84/128 
f 127/83/127 103/65/103 142/72/142 122/72/122 
f 130/86/130 106/68/106 105/67/105 131/87/131 
f 132/88/132 99/33/99 113/93/113 129/85/129 
f 134/74/134 144/74/144 143/73/143 135/73/135 
f 136/73/136 111/73/111 112/74/112 133/74/133 
f 138/70/138 108/70/108 107/69/107 139/89/139 
f 140/90/140 116/94/116 100/70/100 137/70/137 
f 131/87/131 105/67/105 108/70/108 138/70/138 
f 137/70/137 100/70/100 99/33/99 132/88/132 
f 135/73/135 143/73/143 106/68/106 130/86/130 
f 129/85/129 113/93/113 111/73/111 136/73/136 
f 133/74/133 112/74/112 116/94/116 140/90/140 
f 139/89/139 107/69/107 144/74/144 134/74/134 
f 65/16/65 74/16/74 73/15/73 66/15/66 
f 67/17/67 77/17/77 74/16/74 65/16/65 
f 68/18/68 79/18/79 77/17/77 67/17/67 
f 69/25/69 81/25/81 79/18/79 68/18/68 
f 70/26/70 83/26/83 81/25/81 69/25/69 
f 71/19/71 85/19/85 83/26/83 70/26/70 
f 72/20/72 87/20/87 85/19/85 71/19/71 
f 66/15/66 73/15/73 87/20/87 72/20/72 
f 51/1/51 50/26/50 49/25/49 56/8/56 
f 53/6/53 52/25/52 55/26/55 54/3/54 
f 55/26/55 52/25/52 51/1/51 56/8/56 
# 140 polygons - 4 triangles

