# 3ds Max Wavefront OBJ Exporter v0.97b - (c)2007 guruware
# File Created: 04.05.2019 14:59:00

mtllib libroooooo.mtl

#
# object Box005
#

v  -6.5409 0.0000 11.7723
v  -6.5409 0.0000 5.9480
v  -2.1803 0.0000 5.9480
v  -2.1803 0.0000 11.7723
v  2.1803 0.0000 5.9480
v  2.1803 0.0000 11.7723
v  6.5409 0.0000 5.9480
v  6.5409 0.0000 11.7723
v  -6.5409 0.0000 1.5445
v  -2.1803 0.0000 1.5445
v  2.1803 0.0000 1.5445
v  6.5409 0.0000 1.5445
v  -6.5409 0.0000 -4.3237
v  -2.1803 0.0000 -4.3237
v  2.1803 0.0000 -4.3237
v  6.5409 0.0000 -4.3237
v  -6.5409 0.6540 11.7723
v  -2.1803 0.6540 11.7723
v  -2.1803 0.6540 5.9480
v  -6.5409 0.6540 5.9480
v  2.1803 0.6540 11.7723
v  2.1803 0.6540 5.9480
v  6.5409 0.6540 11.7723
v  6.5409 0.6540 5.9480
v  -2.1803 0.6540 1.5445
v  -6.5409 0.6540 1.5445
v  2.1803 0.6540 1.5445
v  6.5409 0.6540 1.5445
v  -2.1803 0.6540 -4.3237
v  -6.5409 0.6540 -4.3237
v  2.1803 0.6540 -4.3237
v  6.5409 0.6540 -4.3237
v  -6.7786 -2.1651 11.7864
v  -6.7786 -2.1651 5.9176
v  -6.7070 -2.1651 5.9176
v  -6.7070 -2.1651 11.7864
v  -6.6355 -2.1651 5.9176
v  -6.6355 -2.1651 11.7864
v  -6.5639 -2.1651 5.9176
v  -6.5639 -2.1651 11.7864
v  -6.7786 -2.1651 1.4698
v  -6.7070 -2.1651 1.4698
v  -6.6355 -2.1651 1.4698
v  -6.5639 -2.1651 1.4698
v  -6.7786 -2.1651 -4.4427
v  -6.7070 -2.1651 -4.4427
v  -6.6355 -2.1651 -4.4427
v  -6.5639 -2.1651 -4.4427
v  -6.7786 0.5483 11.7864
v  -6.7070 0.5483 11.7864
v  -6.7070 0.5483 5.9176
v  -6.7786 0.5483 5.9176
v  -6.6355 0.5483 11.7864
v  -6.6355 0.5483 5.9176
v  -6.5639 0.5483 11.7864
v  -6.5639 0.5483 5.9176
v  -6.7070 0.5483 1.4698
v  -6.7786 0.5483 1.4698
v  -6.6355 0.5483 1.4698
v  -6.5639 0.5483 1.4698
v  -6.7070 0.5483 -4.4427
v  -6.7786 0.5483 -4.4427
v  -6.6355 0.5483 -4.4427
v  -6.5639 0.5483 -4.4427
v  -6.5409 -2.3506 11.8242
v  -6.5409 -2.3506 5.9998
v  -2.1803 -2.3506 5.9998
v  -2.1803 -2.3506 11.8242
v  2.1803 -2.3506 5.9998
v  2.1803 -2.3506 11.8242
v  6.5409 -2.3506 5.9998
v  6.5409 -2.3506 11.8242
v  -6.5409 -2.3506 1.5964
v  -2.1803 -2.3506 1.5964
v  2.1803 -2.3506 1.5964
v  6.5409 -2.3506 1.5964
v  -6.5409 -2.3506 -4.2718
v  -2.1803 -2.3506 -4.2718
v  2.1803 -2.3506 -4.2718
v  6.5409 -2.3506 -4.2718
v  -6.5409 -1.6966 11.8242
v  -2.1803 -1.6966 11.8242
v  -2.1803 -1.6966 5.9998
v  -6.5409 -1.6966 5.9998
v  2.1803 -1.6966 11.8242
v  2.1803 -1.6966 5.9998
v  6.5409 -1.6966 11.8242
v  6.5409 -1.6966 5.9998
v  -2.1803 -1.6966 1.5964
v  -6.5409 -1.6966 1.5964
v  2.1803 -1.6966 1.5964
v  6.5409 -1.6966 1.5964
v  -2.1803 -1.6966 -4.2718
v  -6.5409 -1.6966 -4.2718
v  2.1803 -1.6966 -4.2718
v  6.5409 -1.6966 -4.2718
v  -6.5272 -1.6908 11.8147
v  -6.5272 -1.6908 5.9740
v  -2.1014 -1.6908 5.9740
v  -2.1014 -1.6908 11.8147
v  2.3243 -1.6908 5.9740
v  2.3243 -1.6908 11.8147
v  6.7500 -1.6908 5.9740
v  6.7500 -1.6908 11.8147
v  -6.5272 -1.6908 1.5543
v  -2.1014 -1.6908 1.5543
v  2.3243 -1.6908 1.5543
v  6.7500 -1.6908 1.5543
v  -6.5272 -1.6908 -4.3301
v  -2.1014 -1.6908 -4.3301
v  2.3243 -1.6908 -4.3301
v  6.7500 -1.6908 -4.3301
v  -6.5272 -0.0785 11.8147
v  -2.1014 -0.0785 11.8147
v  -2.1014 -0.0785 5.9740
v  -6.5272 -0.0785 5.9740
v  2.3243 -0.0785 11.8147
v  2.3243 -0.0785 5.9740
v  6.7500 -0.0785 11.8147
v  6.7500 -0.0785 5.9740
v  -2.1014 -0.0785 1.5543
v  -6.5272 -0.0785 1.5543
v  2.3243 -0.0785 1.5543
v  6.7500 -0.0785 1.5543
v  -2.1014 -0.0785 -4.3301
v  -6.5272 -0.0785 -4.3301
v  2.3243 -0.0785 -4.3301
v  6.7500 -0.0785 -4.3301
v  -4.2779 0.6393 -0.5052
v  -4.2779 0.6393 -1.4130
v  -1.4254 0.6393 -1.4130
v  -1.4254 0.6393 -0.5052
v  1.4271 0.6393 -1.4130
v  1.4271 0.6393 -0.5052
v  4.2796 0.6393 -1.4130
v  4.2796 0.6393 -0.5052
v  -4.2779 0.6393 -2.3208
v  -1.4254 0.6393 -2.3208
v  1.4271 0.6393 -2.3208
v  4.2796 0.6393 -2.3208
v  -4.2779 0.6393 -3.2286
v  -1.4254 0.6393 -3.2286
v  1.4271 0.6393 -3.2286
v  4.2796 0.6393 -3.2286
v  -4.2779 0.7116 -0.5052
v  -1.4254 0.7116 -0.5052
v  -1.4254 0.7116 -1.4130
v  -4.2779 0.7116 -1.4130
v  1.4271 0.7116 -0.5052
v  1.4271 0.7116 -1.4130
v  4.2796 0.7116 -0.5052
v  4.2796 0.7116 -1.4130
v  -1.4254 0.7116 -2.3208
v  -4.2779 0.7116 -2.3208
v  1.4271 0.7116 -2.3208
v  4.2796 0.7116 -2.3208
v  -1.4254 0.7116 -3.2286
v  -4.2779 0.7116 -3.2286
v  1.4271 0.7116 -3.2286
v  4.2796 0.7116 -3.2286
# 160 vertices

vn -0.5774 -0.5774 0.5774
vn -0.7071 -0.7071 -0.0000
vn 0.0000 -1.0000 -0.0000
vn 0.0000 -0.7071 0.7071
vn 0.7071 -0.7071 0.0000
vn 0.5774 -0.5774 0.5774
vn 0.7071 -0.7071 -0.0000
vn -0.5774 -0.5774 -0.5774
vn 0.0000 -0.7071 -0.7071
vn 0.5774 -0.5774 -0.5774
vn -0.5774 0.5774 0.5774
vn 0.0000 0.7071 0.7071
vn 0.0000 1.0000 -0.0000
vn -0.7071 0.7071 -0.0000
vn 0.5774 0.5774 0.5774
vn 0.7071 0.7071 0.0000
vn 0.7071 0.7071 -0.0000
vn 0.0000 0.7071 -0.7071
vn -0.5774 0.5774 -0.5774
vn 0.5774 0.5774 -0.5774
# 20 vertex normals

vt 1.0000 0.0000 0.0000
vt 1.0000 0.3333 0.0000
vt 0.6667 0.3333 0.0000
vt 0.6667 0.0000 0.0000
vt 0.3333 0.3333 0.0000
vt 0.3333 0.0000 0.0000
vt -0.0000 0.3333 0.0000
vt -0.0000 0.0000 0.0000
vt 1.0000 0.6667 0.0000
vt 0.6667 0.6667 0.0000
vt 0.3333 0.6667 0.0000
vt -0.0000 0.6667 0.0000
vt 1.0000 1.0000 0.0000
vt 0.6667 1.0000 0.0000
vt 0.3333 1.0000 0.0000
vt -0.0000 1.0000 0.0000
vt 0.0000 0.0000 0.0000
vt 0.0000 0.3333 0.0000
vt 0.0000 0.6667 0.0000
vt 0.0000 1.0000 0.0000
# 20 texture coords

o Box005
g Box005
usemtl wire_008110135
s 2
f 1/1/1 2/2/2 3/3/3 4/4/4 
f 4/4/4 3/3/3 5/5/3 6/6/4 
f 6/6/4 5/5/3 7/7/5 8/8/6 
f 2/2/2 9/9/2 10/10/3 3/3/3 
f 3/3/3 10/10/3 11/11/3 5/5/3 
f 5/5/3 11/11/3 12/12/7 7/7/5 
f 9/9/2 13/13/8 14/14/9 10/10/3 
f 10/10/3 14/14/9 15/15/9 11/11/3 
f 11/11/3 15/15/9 16/16/10 12/12/7 
s 4
f 17/17/11 18/6/12 19/5/13 20/18/14 
f 18/6/12 21/4/12 22/3/13 19/5/13 
f 21/4/12 23/1/15 24/2/16 22/3/13 
f 20/18/14 19/5/13 25/11/13 26/19/14 
f 19/5/13 22/3/13 27/10/13 25/11/13 
f 22/3/13 24/2/16 28/9/17 27/10/13 
f 26/19/14 25/11/13 29/15/18 30/20/19 
f 25/11/13 27/10/13 31/14/18 29/15/18 
f 27/10/13 28/9/17 32/13/20 31/14/18 
s 8
f 1/17/1 4/6/4 18/15/12 17/20/11 
f 4/6/4 6/4/4 21/14/12 18/15/12 
f 6/4/4 8/1/6 23/13/15 21/14/12 
s 16
f 8/17/6 7/6/5 24/15/16 23/20/15 
f 7/6/5 12/4/7 28/14/17 24/15/16 
f 12/4/7 16/1/10 32/13/20 28/14/17 
s 32
f 16/17/10 15/6/9 31/15/18 32/20/20 
f 15/6/9 14/4/9 29/14/18 31/15/18 
f 14/4/9 13/1/8 30/13/19 29/14/18 
s 64
f 13/17/8 9/6/2 26/15/14 30/20/19 
f 9/6/2 2/4/2 20/14/14 26/15/14 
f 2/4/2 1/1/1 17/13/11 20/14/14 
s 2
f 33/1/1 34/2/2 35/3/3 36/4/4 
f 36/4/4 35/3/3 37/5/3 38/6/4 
f 38/6/4 37/5/3 39/7/7 40/8/6 
f 34/2/2 41/9/2 42/10/3 35/3/3 
f 35/3/3 42/10/3 43/11/3 37/5/3 
f 37/5/3 43/11/3 44/12/7 39/7/7 
f 41/9/2 45/13/8 46/14/9 42/10/3 
f 42/10/3 46/14/9 47/15/9 43/11/3 
f 43/11/3 47/15/9 48/16/10 44/12/7 
s 4
f 49/17/11 50/6/12 51/5/13 52/18/14 
f 50/6/12 53/4/12 54/3/13 51/5/13 
f 53/4/12 55/1/15 56/2/17 54/3/13 
f 52/18/14 51/5/13 57/11/13 58/19/14 
f 51/5/13 54/3/13 59/10/13 57/11/13 
f 54/3/13 56/2/17 60/9/17 59/10/13 
f 58/19/14 57/11/13 61/15/18 62/20/19 
f 57/11/13 59/10/13 63/14/18 61/15/18 
f 59/10/13 60/9/17 64/13/20 63/14/18 
s 8
f 33/17/1 36/6/4 50/15/12 49/20/11 
f 36/6/4 38/4/4 53/14/12 50/15/12 
f 38/4/4 40/1/6 55/13/15 53/14/12 
s 16
f 40/17/6 39/6/7 56/15/17 55/20/15 
f 39/6/7 44/4/7 60/14/17 56/15/17 
f 44/4/7 48/1/10 64/13/20 60/14/17 
s 32
f 48/17/10 47/6/9 63/15/18 64/20/20 
f 47/6/9 46/4/9 61/14/18 63/15/18 
f 46/4/9 45/1/8 62/13/19 61/14/18 
s 64
f 45/17/8 41/6/2 58/15/14 62/20/19 
f 41/6/2 34/4/2 52/14/14 58/15/14 
f 34/4/2 33/1/1 49/13/11 52/14/14 
s 2
f 65/1/1 66/2/2 67/3/3 68/4/4 
f 68/4/4 67/3/3 69/5/3 70/6/4 
f 70/6/4 69/5/3 71/7/5 72/8/6 
f 66/2/2 73/9/2 74/10/3 67/3/3 
f 67/3/3 74/10/3 75/11/3 69/5/3 
f 69/5/3 75/11/3 76/12/7 71/7/5 
f 73/9/2 77/13/8 78/14/9 74/10/3 
f 74/10/3 78/14/9 79/15/9 75/11/3 
f 75/11/3 79/15/9 80/16/10 76/12/7 
s 4
f 81/17/11 82/6/12 83/5/13 84/18/14 
f 82/6/12 85/4/12 86/3/13 83/5/13 
f 85/4/12 87/1/15 88/2/16 86/3/13 
f 84/18/14 83/5/13 89/11/13 90/19/14 
f 83/5/13 86/3/13 91/10/13 89/11/13 
f 86/3/13 88/2/16 92/9/17 91/10/13 
f 90/19/14 89/11/13 93/15/18 94/20/19 
f 89/11/13 91/10/13 95/14/18 93/15/18 
f 91/10/13 92/9/17 96/13/20 95/14/18 
s 8
f 65/17/1 68/6/4 82/15/12 81/20/11 
f 68/6/4 70/4/4 85/14/12 82/15/12 
f 70/4/4 72/1/6 87/13/15 85/14/12 
s 16
f 72/17/6 71/6/5 88/15/16 87/20/15 
f 71/6/5 76/4/7 92/14/17 88/15/16 
f 76/4/7 80/1/10 96/13/20 92/14/17 
s 32
f 80/17/10 79/6/9 95/15/18 96/20/20 
f 79/6/9 78/4/9 93/14/18 95/15/18 
f 78/4/9 77/1/8 94/13/19 93/14/18 
s 64
f 77/17/8 73/6/2 90/15/14 94/20/19 
f 73/6/2 66/4/2 84/14/14 90/15/14 
f 66/4/2 65/1/1 81/13/11 84/14/14 
s 2
f 97/1/1 98/2/2 99/3/3 100/4/4 
f 100/4/4 99/3/3 101/5/3 102/6/4 
f 102/6/4 101/5/3 103/7/5 104/8/6 
f 98/2/2 105/9/2 106/10/3 99/3/3 
f 99/3/3 106/10/3 107/11/3 101/5/3 
f 101/5/3 107/11/3 108/12/7 103/7/5 
f 105/9/2 109/13/8 110/14/9 106/10/3 
f 106/10/3 110/14/9 111/15/9 107/11/3 
f 107/11/3 111/15/9 112/16/10 108/12/7 
s 4
f 113/17/11 114/6/12 115/5/13 116/18/14 
f 114/6/12 117/4/12 118/3/13 115/5/13 
f 117/4/12 119/1/15 120/2/16 118/3/13 
f 116/18/14 115/5/13 121/11/13 122/19/14 
f 115/5/13 118/3/13 123/10/13 121/11/13 
f 118/3/13 120/2/16 124/9/17 123/10/13 
f 122/19/14 121/11/13 125/15/18 126/20/19 
f 121/11/13 123/10/13 127/14/18 125/15/18 
f 123/10/13 124/9/17 128/13/20 127/14/18 
s 8
f 97/17/1 100/6/4 114/15/12 113/20/11 
f 100/6/4 102/4/4 117/14/12 114/15/12 
f 102/4/4 104/1/6 119/13/15 117/14/12 
s 16
f 104/17/6 103/6/5 120/15/16 119/20/15 
f 103/6/5 108/4/7 124/14/17 120/15/16 
f 108/4/7 112/1/10 128/13/20 124/14/17 
s 32
f 112/17/10 111/6/9 127/15/18 128/20/20 
f 111/6/9 110/4/9 125/14/18 127/15/18 
f 110/4/9 109/1/8 126/13/19 125/14/18 
s 64
f 109/17/8 105/6/2 122/15/14 126/20/19 
f 105/6/2 98/4/2 116/14/14 122/15/14 
f 98/4/2 97/1/1 113/13/11 116/14/14 
s 2
f 129/1/1 130/2/2 131/3/3 132/4/4 
f 132/4/4 131/3/3 133/5/3 134/6/4 
f 134/6/4 133/5/3 135/7/7 136/8/6 
f 130/2/2 137/9/2 138/10/3 131/3/3 
f 131/3/3 138/10/3 139/11/3 133/5/3 
f 133/5/3 139/11/3 140/12/7 135/7/7 
f 137/9/2 141/13/8 142/14/9 138/10/3 
f 138/10/3 142/14/9 143/15/9 139/11/3 
f 139/11/3 143/15/9 144/16/10 140/12/7 
s 4
f 145/17/11 146/6/12 147/5/13 148/18/14 
f 146/6/12 149/4/12 150/3/13 147/5/13 
f 149/4/12 151/1/15 152/2/17 150/3/13 
f 148/18/14 147/5/13 153/11/13 154/19/14 
f 147/5/13 150/3/13 155/10/13 153/11/13 
f 150/3/13 152/2/17 156/9/17 155/10/13 
f 154/19/14 153/11/13 157/15/18 158/20/19 
f 153/11/13 155/10/13 159/14/18 157/15/18 
f 155/10/13 156/9/17 160/13/20 159/14/18 
s 8
f 129/17/1 132/6/4 146/15/12 145/20/11 
f 132/6/4 134/4/4 149/14/12 146/15/12 
f 134/4/4 136/1/6 151/13/15 149/14/12 
s 16
f 136/17/6 135/6/7 152/15/17 151/20/15 
f 135/6/7 140/4/7 156/14/17 152/15/17 
f 140/4/7 144/1/10 160/13/20 156/14/17 
s 32
f 144/17/10 143/6/9 159/15/18 160/20/20 
f 143/6/9 142/4/9 157/14/18 159/15/18 
f 142/4/9 141/1/8 158/13/19 157/14/18 
s 64
f 141/17/8 137/6/2 154/15/14 158/20/19 
f 137/6/2 130/4/2 148/14/14 154/15/14 
f 130/4/2 129/1/1 145/13/11 148/14/14 
# 150 polygons

